<?xml version="1.0" standalone="no"?>
<!DOCTYPE svg PUBLIC "-//W3C//DTD SVG 20010904//EN"
 "http://www.w3.org/TR/2001/REC-SVG-20010904/DTD/svg10.dtd">
<svg version="1.0" xmlns="http://www.w3.org/2000/svg"
 width="1280.000000pt" height="1180.000000pt" viewBox="0 0 1280.000000 1180.000000"
 preserveAspectRatio="xMidYMid meet">
<metadata>
Created by potrace 1.15, written by Peter Selinger 2001-2017
</metadata>
<g transform="translate(0.000000,1180.000000) scale(0.100000,-0.100000)"
fill="#000000" stroke="none">
<path d="M7595 11794 c-16 -2 -68 -9 -115 -15 -149 -19 -360 -79 -462 -130
-35 -18 -68 -19 -548 -19 -427 0 -523 -3 -587 -16 -163 -33 -299 -110 -419
-235 -104 -110 -130 -152 -138 -229 -155 -1509 -193 -2060 -183 -2650 12 -721
90 -1363 206 -1716 88 -266 160 -455 222 -584 l71 -145 38 -225 c21 -124 41
-259 45 -300 9 -101 -16 -265 -59 -394 -45 -135 -145 -355 -166 -366 -10 -5
-40 -6 -71 -1 -80 13 -97 3 -159 -97 -94 -148 -166 -239 -212 -266 -24 -14
-99 -41 -167 -61 -174 -50 -294 -100 -538 -225 -158 -81 -228 -112 -275 -120
-694 -124 -1362 -381 -1873 -723 -787 -526 -1430 -1331 -2108 -2638 -54 -102
-97 -189 -97 -193 0 -3 40 14 90 39 49 25 136 66 192 91 1241 553 2624 719
4080 489 714 -113 1374 -309 2163 -640 776 -327 1250 -441 1755 -421 457 17
906 152 1342 403 l76 44 -99 169 c-148 254 -258 462 -365 689 l-96 204 22 108
c12 59 25 155 29 212 6 86 13 115 40 172 46 98 130 220 243 351 l98 113 0 217
0 218 127 195 c70 108 169 260 219 338 l93 142 88 -30 c205 -70 465 -136 678
-173 250 -43 720 -67 971 -48 158 11 203 31 305 132 111 110 167 252 156 395
-6 76 -15 106 -122 393 l-72 193 49 44 c27 25 80 59 116 77 37 17 69 33 70 34
11 7 -68 130 -128 200 l-70 82 98 72 c53 40 99 74 101 76 2 2 -13 40 -32 86
-73 171 -106 342 -114 578 -2 91 -1 189 4 219 l8 55 273 76 c192 54 277 82
288 96 66 84 99 165 115 283 l11 78 -57 93 c-189 312 -370 543 -639 818 l-160
163 25 23 c13 13 103 93 199 177 198 172 189 156 189 319 1 225 -80 374 -246
452 -35 17 -63 34 -63 39 0 4 -18 232 -40 506 -22 274 -67 840 -100 1258 -33
418 -62 791 -66 828 -6 65 -9 73 -64 140 -128 159 -292 260 -493 301 -61 13
-147 16 -434 16 -391 0 -417 2 -743 66 -384 74 -356 73 -1125 67 -609 -5 -706
-3 -830 12 -131 16 -493 28 -560 19z m202 -7349 c77 -23 136 -74 173 -149 29
-59 32 -72 28 -138 -5 -87 -26 -137 -84 -194 -47 -48 -133 -84 -199 -84 -66 0
-152 36 -199 84 -58 57 -79 107 -84 194 -4 66 -1 79 27 137 37 74 89 120 165
147 63 22 108 22 173 3z"/>
</g>
</svg>
