<?xml version="1.0" encoding="UTF-8" standalone="no"?>
<!-- Created with Inkscape (http://www.inkscape.org/) -->

<svg
   xmlns:dc="http://purl.org/dc/elements/1.1/"
   xmlns:cc="http://creativecommons.org/ns#"
   xmlns:rdf="http://www.w3.org/1999/02/22-rdf-syntax-ns#"
   xmlns:svg="http://www.w3.org/2000/svg"
   xmlns="http://www.w3.org/2000/svg"
   xmlns:sodipodi="http://sodipodi.sourceforge.net/DTD/sodipodi-0.dtd"
   xmlns:inkscape="http://www.inkscape.org/namespaces/inkscape"
   id="svg4136"
   version="1.1"
   inkscape:version="0.91 r13725"
   width="198.54678"
   height="228.73514"
   viewBox="0 0 198.54678 228.73514"
   sodipodi:docname="GrimReaper.svg">
  <metadata
     id="metadata4142">
    <rdf:RDF>
      <cc:Work
         rdf:about="">
        <dc:format>image/svg+xml</dc:format>
        <dc:type
           rdf:resource="http://purl.org/dc/dcmitype/StillImage" />
        <dc:title />
      </cc:Work>
    </rdf:RDF>
  </metadata>
  <defs
     id="defs4140" />
  <sodipodi:namedview
     pagecolor="#ffffff"
     bordercolor="#666666"
     borderopacity="1"
     objecttolerance="10"
     gridtolerance="10"
     guidetolerance="10"
     inkscape:pageopacity="0"
     inkscape:pageshadow="2"
     inkscape:window-width="1600"
     inkscape:window-height="837"
     id="namedview4138"
     showgrid="false"
     inkscape:zoom="2.9291521"
     inkscape:cx="99.273392"
     inkscape:cy="114.36757"
     inkscape:window-x="-8"
     inkscape:window-y="-8"
     inkscape:window-maximized="1"
     inkscape:current-layer="svg4136"
     fit-margin-top="0"
     fit-margin-left="0"
     fit-margin-right="0"
     fit-margin-bottom="0" />
  <path
     style="fill:#000000"
     d="m 114.03506,228.72328 c -0.51831,-0.0248 -6.69107,-1.05697 -14.062505,-1.50506 -12.080829,-0.73436 -17.065321,-1.29909 -29.40211,-3.33109 -4.781407,-0.78755 -8.412379,-3.44828 -7.613759,-5.57925 0.322115,-0.85951 1.583278,-1.56274 2.802586,-1.56274 1.219308,0 2.530644,-0.32398 2.914079,-0.71995 0.383437,-0.39597 2.612039,-1.15193 4.952451,-1.67989 4.144559,-0.93496 4.316552,-1.12231 6.609261,-7.19951 3.098153,-8.21217 8.369085,-29.3374 9.580494,-38.39742 0.529454,-3.95973 2.412707,-13.89506 4.185004,-22.07851 1.772306,-8.18345 4.112493,-21.69395 5.200425,-30.02333 1.087934,-8.32939 2.202364,-15.74283 2.476494,-16.47433 0.36113,-0.963583 -0.97016,-1.666504 -4.832348,-2.551507 -10.27173,-2.353724 -10.4595,-5.532299 -1.298803,-21.986053 0.73486,-1.319911 1.58085,-2.615824 1.879969,-2.879806 0.299119,-0.263982 1.140394,-1.883873 1.869478,-3.599757 1.736074,-2.977769 2.225174,-5.348861 3.878824,-7.738649 0.88955,-0.910831 -0.18753,-2.566005 -4.96608,-7.631486 C 94.852429,50.227325 87.302171,42.16098 81.430178,35.859728 74.57618,28.504686 69.971877,24.317546 68.569734,24.164476 64.576364,23.728524 48.763764,40.684568 37.131725,57.875836 25.700082,74.770935 12.821555,100.25496 4.4332945,122.5795 L 0.31994519,133.52676 0.04140457,124.0194 C -0.82430836,94.470191 11.826984,64.706713 43.51962,21.732381 48.892611,14.446754 53.288695,8.1309924 53.288695,7.6973564 c 0,-0.4336359 1.582031,-2.3429377 3.515625,-4.2428927 L 60.319945,0 68.288695,9.0238947 C 83.169324,25.874873 105.10091,49.716386 105.72134,49.716386 c 0.33979,0 1.11232,-2.414052 1.71672,-5.364558 0.76561,-3.737413 2.53742,-7.449727 5.84152,-12.239176 2.60841,-3.78104 6.42619,-9.599241 8.48395,-12.929335 4.5137,-7.3046 8.17663,-9.3146483 15.55351,-8.535066 7.13694,0.754224 9.55455,2.338282 18.98514,12.439414 l 4.10723,4.399265 -2.84081,6.215956 c -1.56245,3.418775 -4.50291,8.778179 -6.53437,11.909787 l -3.69355,5.69383 2.79905,10.96415 c 2.33369,9.141245 2.87055,13.387889 3.22906,25.542117 l 0.43001,14.57797 22.3986,24.29942 c 12.31922,13.36468 22.37642,24.5154 22.34933,24.77938 -0.0271,0.26398 -1.28013,1.47506 -2.7845,2.69129 l -2.73523,2.21133 -8.73968,-9.41085 c -4.80684,-5.17596 -13.36123,-14.39394 -19.00978,-20.48439 l -10.27009,-11.07356 -0.28112,3.99806 c -0.15461,2.19894 0.34385,6.75732 1.10769,10.12974 3.35485,14.81205 3.05404,26.80247 -1.81958,72.52906 -1.7427,16.35081 -1.7566,16.10727 0.99301,17.39007 2.44621,1.14124 5.57545,3.42585 3.77639,4.56434 -4.05289,2.56478 -40.5843,4.90796 -44.74878,4.70865 z"
     id="path4146"
     inkscape:connector-curvature="0"
     sodipodi:nodetypes="ssssscssssscsssccssssscsssscssssssscsscsscscscsscssssss" />
</svg>
