<?xml version="1.0" standalone="no"?>
<!DOCTYPE svg PUBLIC "-//W3C//DTD SVG 20010904//EN"
 "http://www.w3.org/TR/2001/REC-SVG-20010904/DTD/svg10.dtd">
<svg version="1.0" xmlns="http://www.w3.org/2000/svg"
 width="1280.000000pt" height="874.000000pt" viewBox="0 0 1280.000000 874.000000"
 preserveAspectRatio="xMidYMid meet">
<metadata>
Created by potrace 1.15, written by Peter Selinger 2001-2017
</metadata>
<g transform="translate(0.000000,874.000000) scale(0.100000,-0.100000)"
fill="#000000" stroke="none">
<path d="M6450 8733 c-434 -29 -707 -78 -1670 -297 -647 -147 -1040 -204
-1470 -211 -255 -4 -305 -14 -402 -79 -170 -112 -294 -333 -418 -741 -133
-441 -209 -909 -276 -1700 -9 -110 -20 -206 -24 -213 -3 -7 -60 -35 -126 -61
-1034 -417 -1705 -947 -1950 -1538 -228 -551 -111 -1133 343 -1703 89 -113
312 -339 448 -457 855 -739 2279 -1339 3760 -1584 414 -68 668 -97 1140 -131
230 -16 1208 -16 1475 0 1285 80 2337 266 3290 581 1678 557 2465 1389 2169
2295 -209 638 -947 1274 -2218 1911 l-266 134 -49 143 c-116 341 -271 739
-412 1063 -76 174 -305 626 -395 780 -736 1258 -1596 1825 -2749 1813 -85 -1
-175 -3 -200 -5z"/>
</g>
</svg>
